$MeshFormat
2.2 0 8
$EndMeshFormat
$PhysicalNames
3
1 1 "Outer"
2 1 "Air"
2 2 "Loop"
$EndPhysicalNames
$Nodes
120
1 0.099 -0.5 0
2 0.099 -0.001 0
3 0.101 -0.001 0
4 0.101 -0.5 0
5 0.101 0.001 0
6 0.09900000000000002 0.001 0
7 0 -0.5 0
8 0.099 0.5 0
9 0 0.5 0
10 0.5 -0.5 0
11 0.5 0.5 0
12 0.101 0.5 0
13 0.101 0.502 0
14 0.099 0.502 0
15 0.099 -0.4168333333333335 0
16 0.099 -0.333666666666667 0
17 0.099 -0.2505000000000005 0
18 0.099 -0.1673333333333335 0
19 0.099 -0.0841666666666665 0
20 0.1 -0.001 0
21 0.101 -0.08416666666666661 0
22 0.101 -0.1673333333333332 0
23 0.101 -0.2504999999999997 0
24 0.101 -0.3336666666666664 0
25 0.101 -0.4168333333333332 0
26 0.101 -6.505213034913027e-19 0
27 0.1 0.001 0
28 0.099 6.505213034913027e-19 0
29 0.04950000000000012 -0.5 0
30 0.099 0.08416666666666661 0
31 0.099 0.1673333333333332 0
32 0.099 0.2504999999999997 0
33 0.099 0.3336666666666664 0
34 0.099 0.4168333333333332 0
35 0.04949999999999988 0.5 0
36 0 0.3999999999999997 0
37 0 0.2999999999999994 0
38 0 0.1999999999999991 0
39 0 0.0999999999999987 0
40 0 -1.332267629550188e-15 0
41 0 -0.100000000000001 0
42 0 -0.2000000000000007 0
43 0 -0.3000000000000005 0
44 0 -0.4000000000000002 0
45 0.2007499999999999 -0.5 0
46 0.3004999999999999 -0.5 0
47 0.4002499999999999 -0.5 0
48 0.5 -0.3999999999999997 0
49 0.5 -0.2999999999999994 0
50 0.5 -0.1999999999999991 0
51 0.5 -0.0999999999999987 0
52 0.5 1.332267629550188e-15 0
53 0.5 0.100000000000001 0
54 0.5 0.2000000000000007 0
55 0.5 0.3000000000000005 0
56 0.5 0.4000000000000002 0
57 0.4002500000000001 0.5 0
58 0.3005000000000001 0.5 0
59 0.2007500000000001 0.5 0
60 0.101 0.4168333333333335 0
61 0.101 0.333666666666667 0
62 0.101 0.2505000000000005 0
63 0.101 0.1673333333333335 0
64 0.101 0.0841666666666665 0
65 0.101 0.501 0
66 0.1 0.502 0
67 0.099 0.501 0
68 0.1002935859042732 0.0002916527728548895 0
69 0.09970895685151987 -0.0002990347551314542 0
70 0.1000004162319347 -1.490358198624581e-06 0
71 0.0615319169838481 0.009323732099079081 0
72 0.0591368043306124 -0.02687269004853574 0
73 0.1543096650022677 -0.0542925172952029 0
74 0.1757067353085635 0.1578633475114458 0
75 0.1754305192641568 -0.2380964382770598 0
76 0.1700109110398132 0.2966998587375965 0
77 0.4049429488467805 -0.05517947344934347 0
78 0.4165247174845821 0.2057798613566868 0
79 0.421021697780764 -0.2136826151368939 0
80 0.2640165451293511 -0.4189686557288735 0
81 0.3368184923558968 0.3932566461638248 0
82 0.1753525612534147 0.05861853519364998 0
83 0.2629899024868563 0.08269996004138151 0
84 0.2549536803313717 0.1679005867662873 0
85 0.3417122080448389 0.1002973123960827 0
86 0.277458390746165 0.004697419333864872 0
87 0.1294691635095197 -0.0005849606336529681 0
88 0.1869281284853688 -0.1379988562068932 0
89 0.2710813122827007 -0.1685643096870706 0
90 0.2502097982053311 -0.2503522252407866 0
91 0.2316874422892904 -0.07606923950549807 0
92 0.2997232273582717 -0.07837326518116855 0
93 0.3464689032774819 -0.1974932622803998 0
94 0.3347519842893199 0.1900878176414204 0
95 0.245828082318668 0.2501176930928108 0
96 0.4263246986698742 -0.1462320357444162 0
97 0.4198936076703579 0.01868520965586667 0
98 0.1701777688007302 -0.2982590090702201 0
99 0.3370831752149664 -0.3940391289575083 0
100 0.3006194669702819 -0.3366512853770843 0
101 0.2638842914900889 0.4175710186878375 0
102 0.3000756758331879 0.3353140337224632 0
103 0.1727520820837215 0.2415122401331853 0
104 0.1728425197249155 0.3685265201526509 0
105 0.4085318516508229 -0.3426593943639787 0
106 0.4093320011404032 0.3424144433265006 0
107 0.1726877621568489 -0.3696305151564757 0
108 0.4199514497675561 0.1058663796449532 0
109 0.2123236741052156 -0.02183386612749625 0
110 0.322732336111886 -0.2801775138139259 0
111 0.3524786708266584 -0.03576217857702987 0
112 0.2282100510960177 0.3336596343154536 0
113 0.3188925752691393 0.2778116286461338 0
114 0.4392490375799478 -0.4091693043527949 0
115 0.2288132775324918 -0.3347556194010892 0
116 0.4393860438491887 0.4090213059232609 0
117 0.1835452170283141 -0.4237334535248595 0
118 0.1835195945544535 0.423141309554651 0
119 0.3745222501837939 -0.1220646802130711 0
120 0.3474736839050465 0.0194326936272868 0
$EndNodes
$Elements
111
1 1 2 1 7 6 28
2 1 2 1 7 28 2
3 1 2 1 12 4 45
4 1 2 1 12 45 46
5 1 2 1 12 46 47
6 1 2 1 12 47 10
7 1 2 1 15 12 60
8 1 2 1 15 60 61
9 1 2 1 15 61 62
10 1 2 1 15 62 63
11 1 2 1 15 63 64
12 1 2 1 15 64 5
13 2 2 1 2 44 15 16
14 2 2 1 2 34 36 33
15 2 2 1 2 29 1 15
16 2 2 1 2 34 8 35
17 2 2 1 2 6 71 28
18 2 2 1 2 71 6 30
19 2 2 1 3 87 26 3
20 2 2 1 3 26 87 5
21 2 2 1 5 30 6 27
22 2 2 1 5 66 65 13
23 2 2 1 5 67 66 14
24 2 2 1 5 64 31 30
25 3 2 2 1 26 5 27 68
26 3 2 2 1 20 69 28 2
27 3 2 2 1 3 70 69 20
28 3 2 2 1 6 70 68 27
29 3 2 2 1 3 26 68 70
30 3 2 2 1 6 28 69 70
31 3 2 1 2 30 31 38 39
32 3 2 1 2 19 41 42 18
33 3 2 1 2 44 16 17 43
34 3 2 1 2 36 37 32 33
35 3 2 1 2 18 42 43 17
36 3 2 1 2 31 32 37 38
37 3 2 1 2 2 72 41 19
38 3 2 1 2 30 39 40 71
39 3 2 1 2 41 72 71 40
40 3 2 1 2 71 72 2 28
41 3 2 1 2 7 29 15 44
42 3 2 1 2 9 36 34 35
43 3 2 1 3 103 95 112 76
44 3 2 1 3 92 86 109 91
45 3 2 1 3 110 100 99 105
46 3 2 1 3 85 108 78 94
47 3 2 1 3 113 106 81 102
48 3 2 1 3 21 73 87 3
49 3 2 1 3 64 5 87 82
50 3 2 1 3 92 91 88 89
51 3 2 1 3 95 103 74 84
52 3 2 1 3 79 96 119 93
53 3 2 1 3 24 98 75 23
54 3 2 1 3 97 77 51 52
55 3 2 1 3 119 92 89 93
56 3 2 1 3 79 50 51 96
57 3 2 1 3 93 110 105 79
58 3 2 1 3 80 46 47 99
59 3 2 1 3 101 81 57 58
60 3 2 1 3 115 100 110 90
61 3 2 1 3 108 85 120 97
62 3 2 1 3 115 90 75 98
63 3 2 1 3 88 75 90 89
64 3 2 1 3 88 22 23 75
65 3 2 1 3 50 79 105 49
66 3 2 1 3 63 64 82 74
67 3 2 1 3 54 55 106 78
68 3 2 1 3 78 108 53 54
69 3 2 1 3 62 63 74 103
70 3 2 1 3 61 62 103 76
71 3 2 1 3 94 78 106 113
72 3 2 1 3 94 84 83 85
73 3 2 1 3 109 73 88 91
74 3 2 1 3 82 83 84 74
75 3 2 1 3 52 53 108 97
76 3 2 1 3 48 114 47 10
77 3 2 1 3 51 77 119 96
78 3 2 1 3 56 11 57 116
79 3 2 1 3 84 94 113 95
80 3 2 1 3 89 90 110 93
81 3 2 1 3 22 88 73 21
82 3 2 1 3 46 80 117 45
83 3 2 1 3 58 59 118 101
84 3 2 1 3 59 12 60 118
85 3 2 1 3 45 117 25 4
86 3 2 1 3 86 83 82 109
87 3 2 1 3 99 100 115 80
88 3 2 1 3 81 101 112 102
89 3 2 1 3 112 95 113 102
90 3 2 1 3 49 105 114 48
91 3 2 1 3 55 56 116 106
92 3 2 1 3 83 86 120 85
93 3 2 1 3 97 120 111 77
94 3 2 1 3 118 104 112 101
95 3 2 1 3 47 114 105 99
96 3 2 1 3 117 80 115 107
97 3 2 1 3 57 81 106 116
98 3 2 1 3 61 76 112 104
99 3 2 1 3 61 104 118 60
100 3 2 1 3 24 107 115 98
101 3 2 1 3 24 25 117 107
102 3 2 1 3 73 109 82 87
103 3 2 1 3 92 111 120 86
104 3 2 1 3 92 119 77 111
105 3 2 1 5 30 27 5 64
106 3 2 1 5 67 8 60 12
107 3 2 1 5 32 31 64 63
108 3 2 1 5 33 32 63 62
109 3 2 1 5 34 33 62 61
110 3 2 1 5 8 34 61 60
111 3 2 1 5 12 65 66 67
$EndElements
